<svg id="Grupo_3688" data-name="Grupo 3688" xmlns="http://www.w3.org/2000/svg" width="753" height="753.194" viewBox="0 0 753 753.194">
  <path id="Caminho_4854" data-name="Caminho 4854" d="M1159.957,1300c206.083,0,373.075,167.009,373.075,373,0,206.1-166.992,373.113-373.075,373.113C953.992,2046.108,787,1879.1,787,1672.995,787,1467.009,953.992,1300,1159.957,1300Z" transform="translate(-783.457 -1296.457)" fill="#fefefe" fill-rule="evenodd"/>
  <path id="Caminho_4855" data-name="Caminho 4855" d="M1133.5,1276.968a368.429,368.429,0,1,0,143.845,29.055A367.851,367.851,0,0,0,1133.5,1276.968Zm0,746.226a376.143,376.143,0,1,1,146.561-29.646A374.867,374.867,0,0,1,1133.5,2023.194Z" transform="translate(-757 -1270)" fill="#888a89"/>
  <path id="Caminho_4856" data-name="Caminho 4856" d="M1397.189,1569c188.486,0,341.189,152.836,341.189,341.223,0,188.506-152.7,341.223-341.189,341.223-188.368,0-341.189-152.718-341.189-341.223C1056,1721.836,1208.82,1569,1397.189,1569Z" transform="translate(-1020.689 -1533.685)" fill="#81397b" fill-rule="evenodd"/>
  <path id="Caminho_4857" data-name="Caminho 4857" d="M2046.982,2263c141.836,0,256.864,115.04,256.864,256.89,0,141.969-115.028,256.89-256.864,256.89-141.954,0-256.982-114.921-256.982-256.89C1790,2378.04,1905.028,2263,2046.982,2263Z" transform="translate(-1668.001 -2145.714)" fill="#a6d9f0" fill-rule="evenodd"/>
  <path id="Caminho_4858" data-name="Caminho 4858" d="M1832.7,1828.653l-12.4,14.173,4.96,7.8-11.1,12.756-27.163-50.2,11.81-13.583,53.617,19.843-11.337,12.992Zm-11.1-4.961-18.305-8.15,10.629,17.008Zm75.465-47.6-15.707,10.276,2.6,8.858-14.172,9.213-12.282-55.866,15.116-9.8,45.94,33.9-14.408,9.449Zm-9.212-7.8-15.353-12.874,5.551,19.37Zm42.161-57.874,26.336-7.559c5.787-1.653,10.511-1.417,14.054.473,3.661,1.89,6.259,5.433,7.676,10.394,1.535,5.2,1.063,9.685-1.181,13.583-2.244,3.78-6.613,6.614-12.991,8.386l-8.739,2.48,5.551,19.134-15.943,4.606Zm22.2,17.362,3.9-1.063c3.07-.945,5.078-2.008,6.023-3.425a5.7,5.7,0,0,0,.59-4.606,5.769,5.769,0,0,0-2.716-3.661c-1.417-.827-3.543-.827-6.614,0l-4.488,1.3ZM2019.535,1692h44.287v11.339h-27.753v8.5h25.745v10.984h-25.745v10.512h28.58v12.047h-45.114Zm117.626,46.772,12.754,8.15a27.444,27.444,0,0,1-7.2,8.5,19.65,19.65,0,0,1-9.212,3.779,27.537,27.537,0,0,1-11.928-1.3c-5.668-1.535-9.92-3.661-12.99-6.26a23.122,23.122,0,0,1-6.732-11.22c-1.417-4.843-1.181-10.394.59-16.772q3.72-12.756,12.4-17.716c5.905-3.307,12.991-3.78,21.258-1.3,6.377,1.772,11.1,4.606,14.054,8.268s4.606,8.5,4.842,14.409l-14.88-.945a15.053,15.053,0,0,0-.591-3.9,11.168,11.168,0,0,0-2.48-3.661,9.591,9.591,0,0,0-4.016-2.244,9.76,9.76,0,0,0-9.566,2.008c-2.008,1.654-3.661,4.843-5.078,9.449-1.536,5.787-1.89,9.921-.709,12.52a8.8,8.8,0,0,0,6.377,5.2c3.071.945,5.551.709,7.558-.59C2133.736,1743.968,2135.508,1741.842,2137.161,1738.771Zm67.434,48.662-15.943-10.039-6.85,6.142-14.29-8.976,45.35-34.606,15.235,9.449-11.219,55.984-14.644-9.094Zm3.307-11.693,5.078-19.37-15.117,13.11Zm71.449,16.536,9.684,12.047-10.393,34.252,23.029-18.661,9.8,12.166-41.571,33.543-9.8-12.047,10.274-34.016-22.793,18.425-9.8-12.047Z" transform="translate(-1665.353 -1642.157)" fill="#fefefe"/>
  <path id="Caminho_4859" data-name="Caminho 4859" d="M1377.075,5198.086l3.9,10.157-14.29,20.551,19.368-7.441,3.9,10.275-35.075,13.464-3.9-10.276,14.172-20.551-19.25,7.441-3.9-10.157Zm-2.008,43.11c5.432-2.953,10.393-3.779,15-2.362,4.724,1.3,8.5,4.606,11.456,9.921,3.071,5.552,3.9,10.512,2.6,15.118s-4.606,8.268-9.92,11.221c-3.779,2.125-7.322,3.307-10.511,3.307a15.5,15.5,0,0,1-8.739-2.362,23.011,23.011,0,0,1-7.2-8.032,25.459,25.459,0,0,1-3.307-10.158,15.562,15.562,0,0,1,2.362-8.977A20.972,20.972,0,0,1,1375.068,5241.2Zm5.669,10.276c-3.307,1.771-5.432,3.661-6.141,5.787a6.993,6.993,0,0,0,.59,6.259,6.9,6.9,0,0,0,4.96,3.78c2.008.472,4.96-.354,8.621-2.362,3.071-1.772,4.96-3.661,5.787-5.669a7.436,7.436,0,0,0-.709-6.26,7.052,7.052,0,0,0-4.96-3.662Q1385.7,5248.637,1380.736,5251.472Zm28.816-7.323,4.37,7.8-10.747-3.543-2.362-4.37Zm-19.368,36.142,7.322,8.268a8.273,8.273,0,0,0-2.362,3.661,6.219,6.219,0,0,0,1.417,5.551,5.2,5.2,0,0,0,3.189,2.244,3.59,3.59,0,0,0,2.953-.59,3.486,3.486,0,0,0,1.3-2.6c.118-1.181-.591-3.188-1.89-6.023-2.244-4.724-3.307-8.5-3.189-11.457a9.265,9.265,0,0,1,3.779-6.969,10.161,10.161,0,0,1,5.314-2.125,11.43,11.43,0,0,1,6.259,1.535,23.808,23.808,0,0,1,6.85,6.377q4.429,5.67,4.606,10.277c.236,3.07-1.181,6.023-3.9,8.739l-7.2-8.149a6.919,6.919,0,0,0,1.771-3.78,5.746,5.746,0,0,0-1.535-3.662,4.379,4.379,0,0,0-2.48-1.89,2.747,2.747,0,0,0-2.362.473,1.981,1.981,0,0,0-.709,1.653,10.151,10.151,0,0,0,1.3,3.9c2.244,4.725,3.661,8.268,4.134,10.629a11.487,11.487,0,0,1-.354,6.378,11.8,11.8,0,0,1-3.425,4.606,12.912,12.912,0,0,1-6.5,2.48,12.476,12.476,0,0,1-7.086-1.535,24.726,24.726,0,0,1-6.85-6.143c-3.9-5.079-5.669-9.33-5.2-12.755A14.2,14.2,0,0,1,1390.184,5280.291Zm47.594,62.953-9.448-9.094-5.669,3.189-8.5-8.268,36.256-17.245,9.094,8.858-15.943,36.733-8.739-8.386Zm3.9-7.441,6.377-12.637-12.282,6.85Zm34.131,25.04,6.5,8.5a17.248,17.248,0,0,1-6.85,3.78,13.97,13.97,0,0,1-6.968.354,21.044,21.044,0,0,1-7.558-3.661,25.511,25.511,0,0,1-7.086-7.323,15.96,15.96,0,0,1-1.771-9.094,22.745,22.745,0,0,1,4.488-10.866c3.661-5.079,7.795-7.914,12.4-8.74,4.724-.708,9.448.708,14.29,4.252q5.846,4.074,7.44,8.858a16.526,16.526,0,0,1-.354,10.63l-9.566-4.134a9.313,9.313,0,0,0,.472-2.717,6.891,6.891,0,0,0-.709-3.071,5.836,5.836,0,0,0-2.126-2.363,6.977,6.977,0,0,0-6.732-1.063c-1.771.708-3.661,2.363-5.669,5.079-2.362,3.426-3.543,6.024-3.425,8.032a6.622,6.622,0,0,0,2.952,5.079,6.2,6.2,0,0,0,5.078,1.417A11.224,11.224,0,0,0,1475.807,5360.842Zm4.133,21.023,18.66-32.481,16.77,9.685a30.213,30.213,0,0,1,6.732,4.842,9.762,9.762,0,0,1,2.244,5.315,11.05,11.05,0,0,1-1.535,6.142,11.576,11.576,0,0,1-3.9,4.016,10.358,10.358,0,0,1-4.96,1.3,15.89,15.89,0,0,1-4.252-.708,12.727,12.727,0,0,1,1.89,2.716,7.619,7.619,0,0,1,.59,2.6,8.878,8.878,0,0,1,.236,2.834l-.59,12.284-11.338-6.614.354-12.992a7.126,7.126,0,0,0-.354-3.543,5.243,5.243,0,0,0-2.008-2.244l-.945-.473-7.558,13.228ZM1501.2,5368.4l4.133,2.48a22.245,22.245,0,0,0,2.953,1.063,2.965,2.965,0,0,0,2.244-.119,3,3,0,0,0,1.653-1.535,3.073,3.073,0,0,0,.472-2.953c-.354-.944-1.417-2.008-3.307-3.071l-4.37-2.479Zm28.934-2.007,28.816,11.692-3.071,7.441-17.951-7.323-2.244,5.551,16.652,6.733-2.834,7.2-16.77-6.85-2.716,6.85,18.542,7.56-3.189,7.913-29.289-11.929Zm32.359,12.283,16.534,5.079c3.189,1.063,5.787,2.245,7.44,3.779a11.345,11.345,0,0,1,3.779,5.315,17.334,17.334,0,0,1,1.181,6.615,31.972,31.972,0,0,1-1.3,7.2c-1.181,3.78-2.48,6.732-4.015,8.5a15.135,15.135,0,0,1-5.314,4.251,11.757,11.757,0,0,1-5.787,1.3,28.849,28.849,0,0,1-6.968-1.062l-16.416-5.079Zm8.621,11.575-5.9,19.606,2.716.827a11.086,11.086,0,0,0,5.078.708,5.065,5.065,0,0,0,3.189-1.889,18.142,18.142,0,0,0,2.716-6.023c1.181-3.78,1.3-6.615.59-8.386-.827-1.772-2.716-3.071-5.551-4.016Zm26.572-3.071,11.456,2.008-6.5,36.968-11.456-2.007Zm14.172,2.6,35.076,3.071-.827,9.212-11.692-.944-2.48,28.11-11.574-.945,2.48-28.229-11.81-1.063Zm56.57,33.308-13.227.472-1.653,6.26-11.81.472,12.755-38.032,12.636-.472,15.471,37.087-12.164.354Zm-2.716-8.032-4.606-13.347-3.661,13.7Zm13.936-23.977,15-2.717,9.8,21.5,1.771-23.5,15-2.6,6.5,36.969-9.33,1.654-4.96-28.229-2.244,29.528-8.5,1.417-12.164-26.93,4.96,28.229-9.33,1.654Zm47.476,10.748c-2.008-5.787-2.008-10.866.118-15.236s6.023-7.559,11.81-9.449c5.905-2.126,10.983-2.008,15.353,0,4.252,2.125,7.44,6.023,9.33,11.693a23.2,23.2,0,0,1,1.417,10.866,16.192,16.192,0,0,1-3.9,8.386,20.933,20.933,0,0,1-9.094,5.551,23.907,23.907,0,0,1-10.629,1.535,14.882,14.882,0,0,1-8.385-3.9A20.461,20.461,0,0,1,1727.122,5401.826Zm10.983-3.78q1.772,5.315,4.606,7.087a7.658,7.658,0,0,0,6.259.473,7.415,7.415,0,0,0,4.724-4.252c.709-1.889.472-4.96-.945-8.858-1.181-3.425-2.716-5.551-4.606-6.614a6.786,6.786,0,0,0-6.259-.472,7.1,7.1,0,0,0-4.488,4.133C1736.57,5391.669,1736.806,5394.386,1738.105,5398.046Zm30.824-3.9,9.684-5.314a8.415,8.415,0,0,0,3.071,3.07,6.141,6.141,0,0,0,5.551-.118,5.453,5.453,0,0,0,3.07-2.716,3.25,3.25,0,0,0,0-2.953,3.65,3.65,0,0,0-2.244-1.89,16.592,16.592,0,0,0-6.259.59c-5.078,1.063-9.094,1.3-11.81.473a8.873,8.873,0,0,1-6.023-5.2,10.278,10.278,0,0,1-.827-5.669,12.629,12.629,0,0,1,2.834-5.788,25.387,25.387,0,0,1,7.795-5.2c4.37-2.007,8.031-2.834,11.1-2.244,2.952.591,5.55,2.48,7.676,5.788l-9.684,5.2a5.209,5.209,0,0,0-3.189-2.48,5.631,5.631,0,0,0-4.015.591,4.1,4.1,0,0,0-2.362,2.008,2.769,2.769,0,0,0-.118,2.362,3,3,0,0,0,1.535,1.063c.709.237,2.008.119,4.015-.354,5.078-1.182,8.857-1.772,11.338-1.654a12.151,12.151,0,0,1,6.141,1.772,11.028,11.028,0,0,1,3.661,4.37,12.6,12.6,0,0,1-2.126,13.464c-1.653,2.008-4.252,3.661-7.558,5.2-5.787,2.717-10.275,3.543-13.581,2.362A15.12,15.12,0,0,1,1768.929,5394.149Zm34.249-45.826,8.857-6.378,23.62,8.5-12.282-16.89,8.857-6.378,22.085,30.354-8.858,6.377-23.5-8.385,12.164,16.653-8.857,6.5Zm68.734-15.709-9.448,9.212,2.952,5.669-8.5,8.268-15.943-36.851,9.094-8.74,36.256,17.126-8.739,8.5Zm-7.322-4.134-12.4-6.85,6.377,12.52Zm3.661-35.314,6.968-9.921,26.927,8.622-17.361-22.322,6.732-9.685,22.793,32.953-7.2,10.276Zm23.738-33.9,5.9-10.04,32.477,18.78-5.787,10.039Zm9.212-15.827,7.795-15.472a20.526,20.526,0,0,1,4.96-6.614,13.06,13.06,0,0,1,5.9-2.834,14.44,14.44,0,0,1,6.732.118,27.394,27.394,0,0,1,6.968,2.48c3.543,1.771,6.141,3.543,7.676,5.433a15.2,15.2,0,0,1,3.189,5.905,11.69,11.69,0,0,1,.236,6.024,29.011,29.011,0,0,1-2.126,6.614l-7.913,15.354Zm12.873-6.5,18.305,9.33,1.181-2.6a10.89,10.89,0,0,0,1.653-4.961,5.382,5.382,0,0,0-1.417-3.424c-.945-1.182-2.716-2.362-5.432-3.78-3.543-1.772-6.259-2.363-8.149-1.89s-3.543,2.008-4.842,4.724Zm38.737-34.606-4.015,12.637,5.314,3.544-3.661,11.338-31.414-25.039,3.9-12.047,40.154-1.772-3.779,11.575Zm-8.5-.118-14.054-.236,11.574,8.031Z" transform="translate(-1272.912 -4727.883)" fill="#fefefe"/>
  <path id="Caminho_4860" data-name="Caminho 4860" d="M2676.829,4688.943c20.195-1.654,23.265,2.48,43.578-4.843,9.8-3.543,23.5-10.039,33.3-12.4,32.6-7.914,56.924,19.016,70.623,14.646-.945-23.622-56.1-31.063-72.394-27.048-12.518,3.189-25.391,9.8-37.319,13.819-19.132,6.5-25.273.236-40.389,3.78-12.991,5.2-19.841,30.236,9.566,42.52,4.724,2.007,10.393,3.78,13.817,7.2-19.014,8.15-40.271-7.086-53.735-12.755-20.549-8.623-38.736,2.244-34.839,23.031,3.661,10.866,19.368,11.811,27.044,21.968l3.307,8.622c5.314,12.4,19.014,20.905,33.422,27.52,8.5,4.016,8.857,2.362,16.3,8.031,18.188,14.291,52.2,24.212,75.111,26.575,63.891,6.378,144.552-71.1,149.63-83.622,1.3-3.308,0-8.386-.708-8.977-11.1-4.724-11.692,4.96-18.66,13.819-17.715,22.559-75.465,62.48-114.2,66.259-14.762,1.536-45.231-4.015-58.458-12.992,13.818-2.48,34.248-.827,43.342-6.614-5.2-25.039-53.853-2.48-84.795-12.4l-18.9-11.929c-.354-1.063-1.181-1.063-1.771-1.536,18.777,3.189,67.67,11.693,84.44,6.85-.826-11.811-.118-10.394-13.345-12.047-29.761-3.662-62-2.362-88.1-19.016-25.863-16.536-21.848-10.039-21.139-19.606,3.425-2.953.945-3.307,9.566-3.779,8.739-.472,15.589,5.079,23.265,8.74,10.156,4.842,22.911,8.858,35.9,8.267,12.519-.472,23.62-6.85,36.02-10.747,21.258-6.732,19.958.236,34.366-2.362-1.535-19.843-29.76-19.606-45-16.063C2704.818,4714.455,2675.057,4712.21,2676.829,4688.943Z" transform="translate(-2389.847 -4258.073)" fill="#fefefe" fill-rule="evenodd"/>
  <path id="Caminho_4861" data-name="Caminho 4861" d="M2332.922,3065.2c3.779-15.826-54.8-146.457,37.909-199.016-2.953,10.63-26.572,43.346-9.566,41.339,7.322-.945,8.858-6.614,14.29-13.937,18.305-25.275,18.188-53.031,53.144-63.543-.354.59-1.063.827-1.3,1.89l-5.078,6.5c-9.566,10.984-9.33,8.74-18.305,24.449-7.086,12.284-21.258,25.866-20.9,38.15,15.471,1.181,28.343-27.047,45.586-48.307,7.794-9.567,41.925-35.079,58.931-34.724,2.126,26.339-26.808,20.315-45,51.26-5.9,9.922-7.44,25.158-10.51,37.8-4.252,17.835-13.7,23.74-13.818,34.134,15.471,2.008,30.233-16.3,34.721-31.771,5.9-20.433,25.745-30.354,37.437-24.449.354,9.921-9.566,17.244-13.936,34.252-9.448,37.323-.472,45-30.115,71.929-10.275,9.213-25.627,12.165-25.746,25.63,17.361,3.78,36.492-17.953,44.76-28.111,19.132-23.622,14.526-23.858,21.494-58.937,4.842-23.858,25.982-36.969,14.054-52.323-16.888-21.614-41.571,5.433-52.081,8.977,5.433-22.323,21.612-27.166,37.319-38.15,20.195-14.173,19.25-45.354-3.189-43.7-7.2.591-20.195,9.449-27.044,11.22-12.991,3.189.472.354-11.692-1.417-5.2-.709-11.574.354-16.888,2.125-8.976,3.071-23.738,11.811-30.588,17.6l-6.259,4.488c-21.376,9.921-21.14,10.866-34.957,24.213-7.086,7.559-14.29,8.976-21.967,18.307-34.13,41.693-32.359,109.37-18.305,160.276C2323.356,3070.511,2322.411,3064.724,2332.922,3065.2Z" transform="translate(-2122.941 -2623.226)" fill="#fefefe" fill-rule="evenodd"/>
  <path id="Caminho_4862" data-name="Caminho 4862" d="M4247.193,2967.408c-3.778-6.968-8.5-13.346-12.636-19.842-5.9-9.213-5.433-15.945-17.951-15.827-10.629,31.181,37.319,39.685,31.06,106.3-5.9-12.047-6.259-27.283-15.234-42.874a112.152,112.152,0,0,1-9.448-19.96c-4.016-10.276-3.425-15.118-14.526-16.535-8.622,17.126,44.759,91.535,18.423,130.275-29.052-7.087,6.613-49.606-37.2-82.913-31.532-23.858-22.32-43.11-32.241-37.795l-2.479,4.134c-1.536,4.842-1.417-1.417-1.653,7.087-.591,27.756,20.431,32.6,22.556,53.622,1.536,15,.945,19.016-8.03,24.685-8.5-4.134-9.8-19.724-35.076-43.11-18.542-17.126-34.957-24.094-33.421-71.929.236-10.512,1.89-11.811-7.676-12.756-13.345,14.528-1.417,64.843,17.951,80.906,13.817,11.575,31.651,25.276,38.382,42.283,13.109,33.189,42.161,14.055,40.626-14.409-.708-11.811-2.953-8.977.709-16.3,10.392,10.158,11.809,23.858,12.282,40.276.354,11.1.473,34.252,20.313,38.386,23.5,4.725,18.9-17.952,22.557-33.9,3.542-15.236,14.408-9.8,16.416-39.449.708-11.22-.354-14.882-1.063-24.8-.591-10.511,3.425-13.464,3.188-26.22-.236-6.969-7.321-40.512-9.329-48.307-13.936-52.8-73.1-84.212-122.232-100.394-6.968-2.362-51.018-11.457-29.643,4.724,1.063.827,36.729,10.512,43.224,13.583,32.359,15.354,77.473,34.37,93.533,75.945C4242.588,2932.565,4248.139,2956.542,4247.193,2967.408Z" transform="translate(-3692.837 -2639.886)" fill="#fefefe" fill-rule="evenodd"/>
  <path id="Caminho_4863" data-name="Caminho 4863" d="M5454,7375.323V7353h9.92a13.663,13.663,0,0,1,4.488.59,4.36,4.36,0,0,1,2.479,2.127,5.649,5.649,0,0,1,.945,3.306,5.34,5.34,0,0,1-1.535,4.016,8.028,8.028,0,0,1-4.724,2.127,5.768,5.768,0,0,1,1.771,1.063,21.719,21.719,0,0,1,2.479,2.953l3.9,6.142h-3.779l-2.953-4.607a24.478,24.478,0,0,0-2.126-3.189,7.778,7.778,0,0,0-1.417-1.417,3.624,3.624,0,0,0-1.417-.59,5.814,5.814,0,0,0-1.654-.118h-3.424v9.921Zm2.953-12.52h6.377a11.883,11.883,0,0,0,3.188-.354,3.258,3.258,0,0,0,1.653-1.417,2.982,2.982,0,0,0,.708-2.008,3.792,3.792,0,0,0-1.18-2.6,6.175,6.175,0,0,0-3.662-.945h-7.085Z" transform="translate(-4899.289 -6634.529)" fill="#82397a" fill-rule="evenodd"/>
  <path id="Caminho_4864" data-name="Caminho 4864" d="M5414.43,7316.6a17.715,17.715,0,1,1-35.43.236,17.715,17.715,0,1,1,35.43-.236Z" transform="translate(-4833.146 -6586.907)" fill="none" stroke="#81397b" stroke-width="7.62" fill-rule="evenodd"/>
</svg>
